<svg width="45" height="46" viewBox="0 0 45 46" fill="none" xmlns="http://www.w3.org/2000/svg">
<g clip-path="url(#clip0_2_95)">
<path d="M41.1703 19.2916H39.6823C39.0727 19.2916 38.4958 19.4343 37.9832 19.688C37.4181 18.8726 36.662 18.2059 35.7889 17.7487C36.0798 16.8163 36.1494 15.8141 35.9722 14.8332C36.5141 14.6501 37.023 14.3431 37.454 13.9121C38.6232 12.7596 39.6232 11.9383 39.6282 10.1421C39.6592 6.7522 35.4496 5.01437 33.0703 7.42432C33.0703 7.42423 32.0183 8.4764 32.0183 8.4764C31.5872 8.90741 31.2803 9.41618 31.0971 9.95802C30.1211 9.78106 29.1148 9.84441 28.1742 10.1384C27.7207 9.27332 27.0611 8.51546 26.2423 7.94724C26.496 7.43464 26.6386 6.85774 26.6386 6.24812V4.76016C26.6387 2.64071 24.9145 0.916504 22.7951 0.916504C20.6756 0.916504 18.9515 2.64071 18.9515 4.76016V6.24803C18.9515 6.85765 19.0942 7.43456 19.3479 7.94715C18.5325 8.51225 17.8658 9.26846 17.4085 10.1415C16.4762 9.85058 15.474 9.78106 14.4932 9.9582C14.307 9.40533 13.9951 8.8996 13.572 8.4764L12.5198 7.42414C10.1403 5.01463 5.93077 6.7522 5.96192 10.1421C5.96705 11.9383 6.96741 12.76 8.13623 13.912C8.55934 14.3351 9.06507 14.647 9.61785 14.8332C9.44097 15.8093 9.50433 16.8154 9.7982 17.7561C8.93315 18.2097 8.17537 18.8691 7.60706 19.688C7.09447 19.4343 6.51756 19.2916 5.90794 19.2916H4.41998C2.30062 19.2916 0.576416 21.0159 0.576416 23.1353C0.576416 25.2547 2.30062 26.979 4.41998 26.979H5.90794C6.51756 26.979 7.09447 26.8363 7.60706 26.5826C8.17216 27.398 8.92829 28.0647 9.80133 28.5219C9.5104 29.4542 9.44088 30.4564 9.61802 31.4373C9.07618 31.6204 8.56732 31.9274 8.13623 32.3585L7.08414 33.4106C5.59775 34.8355 5.59775 37.4215 7.08414 38.8464C8.58277 40.3449 11.0212 40.3449 12.5198 38.8464L13.572 37.7942C14.003 37.3632 14.31 36.8544 14.4931 36.3126C15.4692 36.4894 16.4753 36.4261 17.416 36.1322C17.8695 36.9973 18.529 37.7551 19.3479 38.3234C19.0942 38.8359 18.9515 39.4129 18.9515 40.0225V41.5103C18.9515 43.6297 20.6758 45.354 22.7952 45.354C24.9145 45.354 26.6388 43.6298 26.6388 41.5103V40.0225C26.6388 39.4129 26.4961 38.8359 26.2424 38.3234C27.0578 37.7582 27.7245 37.002 28.1817 36.1291C29.118 36.4219 30.1269 36.4883 31.0971 36.3124C31.2802 36.8542 31.5872 37.3631 32.0183 37.7942L33.0703 38.8463C34.5691 40.3449 37.0075 40.3448 38.5061 38.8463C39.9922 37.4213 39.9925 34.8354 38.506 33.4106C38.5061 33.4106 37.4539 32.3584 37.4539 32.3584C37.0229 31.9274 36.5141 31.6204 35.9723 31.4373C36.1492 30.4613 36.0859 29.4551 35.792 28.5143C36.657 28.0609 37.4148 27.4014 37.9831 26.5825C38.4957 26.8362 39.0726 26.9789 39.6822 26.9789H41.1702C46.2621 26.7861 46.261 19.4838 41.1703 19.2916ZM33.2457 9.70372L34.2978 8.65164C34.7087 8.24068 35.2485 8.03524 35.7882 8.03524C37.6495 8.03212 38.599 10.3018 37.2787 11.6325L36.2267 12.6846C34.1779 14.5839 31.3461 11.753 33.2457 9.70372ZM28.7501 14.7513C28.829 14.6176 28.8706 14.4654 28.8706 14.3102V12.9433C28.8706 12.5484 28.831 12.1576 28.7548 11.7759C29.4556 11.5682 30.205 11.5382 30.9268 11.6935C31.0973 13.3511 32.5794 14.8332 34.2369 15.0037C34.5461 16.4425 34.105 17.9626 33.0706 18.997L32.2716 19.7959L24.6075 21.7718L28.7501 14.7513ZM20.6873 4.76016C20.7931 1.96807 24.7973 1.96816 24.903 4.76016V6.24803C24.903 7.41025 23.9574 8.35585 22.7952 8.35585C21.6329 8.35585 20.6873 7.41025 20.6873 6.24803V4.76016ZM20.4545 9.29485C21.7472 10.3463 23.8432 10.3462 25.1358 9.29485C26.3718 10.0937 27.1347 11.4804 27.1347 12.9433V14.0732L23.1126 20.8896L21.0776 12.9961C21.0389 12.8458 20.9606 12.7087 20.8509 12.599C20.3377 12.0999 19.5818 11.2614 18.9769 10.889C19.3256 10.2465 19.8342 9.69548 20.4545 9.29485ZM8.31146 11.6325C7.49848 10.8537 7.49857 9.4305 8.31146 8.65172C9.13329 7.82981 10.4705 7.82989 11.2923 8.65172L12.3444 9.70381C12.7403 10.0997 12.9582 10.6289 12.9582 11.1943C12.9808 12.3326 11.9925 13.3212 10.8539 13.2985C10.2887 13.2985 9.75932 13.0805 9.36355 12.6848C9.36364 12.6847 8.31146 11.6325 8.31146 11.6325ZM4.41998 25.2431C1.62798 25.1373 1.62807 21.1331 4.41998 21.0274H5.90785C7.07008 21.0274 8.01568 21.973 8.01568 23.1353C8.01568 24.2975 7.07008 25.2431 5.90785 25.2431H4.41998ZM8.95476 25.4758C10.0062 24.1832 10.0061 22.0872 8.95476 20.7947C9.75359 19.5587 11.1403 18.7957 12.6032 18.7957H13.9701C15.1197 18.7534 15.1203 17.1024 13.9701 17.0598C13.2513 17.0707 12.1291 17.0106 11.4359 17.1756C11.2281 16.4744 11.1982 15.7245 11.3538 15.0024C13.0368 14.8145 14.4745 13.3767 14.6624 11.6938C16.1017 11.384 17.6223 11.8252 18.657 12.8599L19.4559 13.6588L21.4318 21.3229L21.1925 21.1817C20.7795 20.938 20.2475 21.0753 20.0039 21.4881C19.7603 21.9009 19.8975 22.4331 20.3103 22.6766L20.5495 22.8178L12.656 24.8527C12.5058 24.8914 12.3686 24.9698 12.2589 25.0795C11.7598 25.5926 10.9213 26.3485 10.5489 26.9534C9.90643 26.6048 9.35539 26.0961 8.95476 25.4758ZM12.3446 36.5668L11.2924 37.6189C10.4707 38.4407 9.13346 38.4408 8.31155 37.6189C7.49866 36.84 7.49848 35.4169 8.31155 34.638L9.36364 33.5859C11.4124 31.6863 14.2441 34.5177 12.3446 36.5668ZM16.8401 31.5192C16.7612 31.6529 16.7197 31.8051 16.7197 31.9603V33.3272C16.7197 33.7221 16.7592 34.1129 16.8354 34.4946C16.1347 34.7023 15.3852 34.7324 14.6635 34.577C14.4929 32.9193 13.0108 31.4374 11.3533 31.2668C11.0442 29.8279 11.4853 28.3079 12.5198 27.2735L13.3187 26.4746L20.9828 24.4987L16.8401 31.5192ZM24.9029 41.5103C24.7971 44.3024 20.793 44.3023 20.6873 41.5103V40.0225C20.6873 38.8603 21.6329 37.9147 22.7951 37.9147C23.9573 37.9147 24.9029 38.8603 24.9029 40.0225V41.5103ZM25.1358 36.9757C23.843 35.9242 21.7471 35.9243 20.4546 36.9757C19.2186 36.1769 18.4556 34.7901 18.4556 33.3272V32.1973L22.4778 25.3809L24.5127 33.2744C24.5514 33.4247 24.6298 33.5618 24.7395 33.6715C25.2525 34.1706 26.0085 35.0091 26.6134 35.3816C26.2647 36.0239 25.7561 36.575 25.1358 36.9757ZM26.9333 33.4106L26.1344 32.6117L24.1586 24.9476L31.1791 29.0903C31.3127 29.1692 31.465 29.2108 31.6201 29.2108C32.3359 29.2009 33.4634 29.2592 34.1545 29.095C34.3621 29.7957 34.3921 30.5451 34.2368 31.267C32.5792 31.4376 31.0972 32.9196 30.9267 34.5772C29.488 34.8862 27.9678 34.4451 26.9333 33.4106ZM37.2788 34.638C38.0916 35.4168 38.0918 36.8401 37.2787 37.6188C36.4569 38.4406 35.1196 38.4406 34.2978 37.6188L33.2457 36.5667C31.9191 35.2459 32.8846 32.9568 34.7362 32.9694C35.2759 32.9694 35.8157 33.1749 36.2266 33.5858L37.2788 34.638ZM32.987 27.4748H31.8572L25.0408 23.4526L32.9343 21.4177C33.0845 21.379 33.2217 21.3007 33.3313 21.191C33.8306 20.678 34.669 19.922 35.0415 19.3172C35.6838 19.6658 36.2349 20.1744 36.6355 20.7947C35.584 22.0874 35.5842 24.1834 36.6355 25.4759C35.8367 26.7119 34.4499 27.4748 32.987 27.4748ZM41.1703 25.2431H39.6823C38.5201 25.2431 37.5745 24.2975 37.5745 23.1353C37.5745 21.973 38.5201 21.0274 39.6823 21.0274H41.1703C43.9623 21.1332 43.9623 25.1374 41.1703 25.2431Z" fill="#FDF6F6"/>
<path d="M17.3865 20.8123C17.8658 20.8123 18.2544 20.4238 18.2544 19.9444C18.2119 18.7943 16.5604 18.7945 16.5183 19.9444C16.5182 20.4238 16.9071 20.8123 17.3865 20.8123Z" fill="#FDF6F6"/>
</g>
<defs>
<clipPath id="clip0_2_95">
<rect width="44.4375" height="44.4375" fill="white" transform="translate(0.562378 0.916504)"/>
</clipPath>
</defs>
</svg>
