<svg width="44" height="43" viewBox="0 0 44 43" fill="none" xmlns="http://www.w3.org/2000/svg">
<g clip-path="url(#clip0_2_78)">
<path d="M31.2448 39.1244C31.7064 39.1244 32.0806 38.7502 32.0806 38.2887C32.0806 37.8271 31.7064 37.4529 31.2448 37.4529C30.7832 37.4529 30.4091 37.8271 30.4091 38.2887C30.4091 38.7502 30.7832 39.1244 31.2448 39.1244Z" fill="#FDF6F6"/>
<path d="M33.0671 35.9866C33.4771 36.1985 33.9814 36.0375 34.1932 35.6273C35.1622 33.7496 35.6745 31.6355 35.6745 29.513C35.6745 23.044 31.0715 17.6558 24.9868 16.4116C24.9812 16.4104 24.9652 16.4074 24.9628 16.407C24.3625 16.2855 23.7516 16.206 23.1379 16.1677V10.9588C23.1379 10.0371 23.8877 9.28727 24.8094 9.28727C29.418 9.28727 33.1672 5.53807 33.1672 0.929525C33.1672 0.46801 32.7929 0.09375 32.3314 0.09375H29.8241C26.52 0.09375 23.6577 2.02105 22.3021 4.81044C20.9465 2.02105 18.0842 0.09375 14.7801 0.09375H12.2728C11.8113 0.09375 11.437 0.46801 11.437 0.929525C11.437 5.53807 15.1862 9.28727 19.7948 9.28727C20.7165 9.28727 21.4663 10.0371 21.4663 10.9588V16.1678C14.3562 16.6104 8.92969 22.5268 8.92969 29.513C8.92969 36.8866 14.9285 42.8854 22.3021 42.8854C24.5117 42.8854 26.7031 42.3325 28.6394 41.2862C29.0454 41.0669 29.1968 40.5598 28.9774 40.1536C28.7579 39.7475 28.251 39.5963 27.8448 39.8156C26.3009 40.6498 24.5709 41.1239 22.8121 41.2012C23.0444 41.0793 23.2109 40.8527 23.2508 40.5843C23.4483 39.2539 24.0097 38.7647 24.8594 38.0243C25.4269 37.5298 26.07 36.9694 26.7027 36.0779C27.3974 35.0998 27.6652 33.9099 27.4569 32.7268L27.1426 30.945C27.0625 30.4905 26.629 30.1868 26.1747 30.267L24.6029 30.5437C23.6886 30.7052 22.7764 30.3419 22.2228 29.5961C21.0926 28.0718 19.119 27.5378 17.3841 28.2328C17.379 28.2295 17.3741 28.2263 17.3691 28.223C16.7449 27.8108 16.3894 27.2212 16.3681 26.5627C16.3541 26.1318 16.4828 25.705 16.7248 25.3336C16.8083 25.4852 16.9455 25.6302 17.18 25.7089C17.4729 25.8073 17.7926 25.7351 18.0145 25.5294C18.3727 25.1971 18.2868 24.7908 18.2221 24.5336C18.1958 24.1907 17.9627 23.7625 18.2921 23.2917C18.4413 23.0786 18.6646 22.9363 18.9203 22.8911L19.9963 22.702C21.1437 22.4988 23.7551 19.8099 25.1375 18.1607C26.785 18.5717 28.3179 19.338 29.6417 20.4078C27.4995 21.6645 27.5643 21.5921 27.4299 21.7263C26.9371 22.2178 26.6479 22.8995 26.6479 23.5967V24.6564C26.6479 26.115 27.8412 27.3016 29.2998 27.3016C29.8367 27.3016 30.2734 27.7381 30.2734 28.2745C30.2734 28.6777 30.5613 29.0235 30.9579 29.0965L34.0005 29.6559C33.9789 31.4874 33.545 33.2379 32.7075 34.8606C32.4961 35.2708 32.657 35.775 33.0671 35.9866ZM19.7948 7.61572C16.391 7.61572 13.5733 5.05892 13.1605 1.7653H14.7801C18.3347 1.7653 21.2505 4.55336 21.4549 8.05776C20.9655 7.77669 20.3985 7.61572 19.7948 7.61572ZM29.8241 1.76446H31.4436C31.0309 5.05808 28.2132 7.61572 24.8094 7.61572C24.2056 7.61572 23.6387 7.77669 23.1493 8.05776C23.3537 4.55336 26.2694 1.76446 29.8241 1.76446ZM20.8804 30.592C21.814 31.8498 23.3521 32.4619 24.8932 32.1898L25.6417 32.0581L25.8107 33.017C25.9409 33.756 25.7736 34.4993 25.3396 35.1105C24.822 35.8399 24.2827 36.3098 23.7613 36.7641C23.1939 37.2585 22.6146 37.7632 22.1857 38.5302C21.6157 37.7769 21.2343 37.6105 20.9877 37.435C20.9661 37.393 20.9049 37.2433 20.8233 36.7816C20.6693 35.9058 20.1832 35.1429 19.4551 34.6338L18.8891 34.2373C19.6696 33.0688 19.6345 31.5382 18.7943 30.4058L18.2683 29.6967C19.2326 29.4309 20.2671 29.7649 20.8804 30.592ZM17.4521 31.4018C17.8775 31.975 17.8881 32.7537 17.4792 33.3382L17.0412 33.9626C16.7761 34.3405 16.8678 34.8621 17.2459 35.1271L18.4968 36.0033C18.859 36.2566 19.1007 36.6357 19.1774 37.0718C19.3827 38.2341 19.6445 38.5659 20.1915 38.9107C20.3692 39.0227 20.5528 39.1386 20.8653 39.555L21.717 40.9072C21.8016 41.0415 21.9207 41.1441 22.0569 41.2109C15.7178 41.0796 10.6012 35.8829 10.6012 29.513C10.6012 28.6793 10.6914 27.8482 10.8672 27.0369C11.1338 27.394 11.4931 27.6892 11.9261 27.8788L16.2445 29.7738L17.4521 31.4018ZM19.6788 21.0607L18.6305 21.2449C17.9347 21.3678 17.3282 21.7542 16.923 22.333C16.7245 22.6167 16.5862 22.9301 16.511 23.2577C16.4314 23.2934 16.3543 23.3387 16.2812 23.3942C15.2496 24.1759 14.6575 25.3806 14.6976 26.6169C14.7053 26.8526 14.7361 27.0843 14.7889 27.3097L12.5972 26.3479C12.1446 26.1497 11.9069 25.6503 12.0563 25.2109C12.2199 24.7289 12.2455 24.2148 12.1356 23.7269C14.2235 20.0701 18.0875 17.8122 22.3021 17.8122C22.6022 17.8122 22.9026 17.8239 23.202 17.8469C21.7362 19.4816 20.1468 20.8814 19.6788 21.0607ZM29.3 25.63C28.7631 25.63 28.3197 25.1932 28.3197 24.6563V23.5966C28.3197 23.3709 28.4067 23.1499 28.5492 22.9772L30.9152 21.6009C32.5414 23.3695 33.5758 25.5718 33.8958 27.937L31.8473 27.5603C31.5349 26.4479 30.5112 25.63 29.3 25.63Z" fill="#FDF6F6"/>
</g>
<defs>
<clipPath id="clip0_2_78">
<rect width="42.7917" height="42.7917" fill="white" transform="translate(0.90625 0.09375)"/>
</clipPath>
</defs>
</svg>
