<svg width="38" height="37" viewBox="0 0 38 37" fill="none" xmlns="http://www.w3.org/2000/svg">
<g clip-path="url(#clip0_2_86)">
<path d="M34.6489 16.605C34.2583 16.605 33.9417 16.9217 33.9417 17.3122C33.9417 17.7027 34.2583 18.0194 34.6489 18.0194C35.2459 18.0194 35.7316 18.505 35.7316 19.102C35.7316 19.6991 35.2459 20.1847 34.6489 20.1847H33.3077C33.1872 17.9713 32.5017 15.8347 31.3069 13.9664C30.117 12.1058 28.4755 10.5875 26.5388 9.54757C26.5843 9.21003 26.6088 8.86775 26.6088 8.52193C26.6088 4.34949 23.2142 0.954956 19.0418 0.954956C14.8693 0.954956 11.4748 4.34949 11.4748 8.52193C11.4748 8.68473 11.4812 8.84653 11.4914 9.0077C11.4788 9.01294 11.4661 9.01782 11.4536 9.02312L8.32129 7.20662C7.91855 6.97303 7.43716 6.97233 7.03363 7.20471C6.63011 7.43717 6.38924 7.85392 6.38924 8.3196V12.8523C5.46352 14.0073 4.75371 15.2932 4.27374 16.6842H2.90009C1.81801 16.6842 0.937622 17.5645 0.937622 18.6466V23.1373C0.937622 24.2194 1.81801 25.0998 2.90009 25.0998H4.27395C5.14585 27.6193 6.7951 29.8227 8.97601 31.3782V34.525C8.97601 35.3526 9.64933 36.0259 10.477 36.0259H13.1121C13.677 36.0259 14.1885 35.7139 14.4468 35.2116L15.2217 33.7052C15.6277 33.7435 16.0357 33.7628 16.4402 33.7628H20.4562C20.8606 33.7628 21.2687 33.7435 21.6747 33.7052L22.4495 35.2116C22.7079 35.7139 23.2193 36.0259 23.7842 36.0259H26.4194C27.247 36.0259 27.9203 35.3526 27.9203 34.525V31.3782C31.1209 29.0976 33.0935 25.5053 33.3069 21.5991H34.649C36.0258 21.5991 37.146 20.479 37.146 19.1021C37.146 17.7253 36.0258 16.605 34.6489 16.605ZM19.0418 2.36927C22.4343 2.36927 25.1944 5.12931 25.1944 8.52186C25.1944 9.60776 24.9141 10.6529 24.3808 11.5803C23.3551 11.0192 22.259 10.6318 21.1359 10.4186C21.2965 10.1217 21.3875 9.78661 21.3875 9.43181C21.3875 8.22194 20.3352 7.2376 19.0418 7.2376C18.5283 7.2376 18.1105 6.88782 18.1105 6.45784C18.1105 6.02787 18.5283 5.67809 19.0418 5.67809C19.5553 5.67809 19.9731 6.02787 19.9731 6.45784C19.9731 6.84836 20.2897 7.16504 20.6803 7.16504C21.0709 7.16504 21.3875 6.84836 21.3875 6.45784C21.3875 5.47845 20.6978 4.64707 19.749 4.36582V4.26745C19.749 3.87694 19.4324 3.56026 19.0418 3.56026C18.6512 3.56026 18.3346 3.87694 18.3346 4.26745V4.36582C17.3858 4.64707 16.6961 5.47845 16.6961 6.45784C16.6961 7.66771 17.7483 8.65198 19.0418 8.65198C19.5553 8.65198 19.9731 9.00183 19.9731 9.43181C19.9731 9.86178 19.5553 10.2116 19.0418 10.2116C18.5283 10.2116 18.1105 9.86178 18.1105 9.43181C18.1105 9.04129 17.7939 8.72461 17.4033 8.72461C17.0127 8.72461 16.6961 9.04129 16.6961 9.43181C16.6961 9.78781 16.7877 10.1239 16.9493 10.4215C15.8269 10.6362 14.7317 11.0252 13.707 11.5876C13.1709 10.6586 12.8892 9.6108 12.8892 8.52186C12.8892 5.12931 15.6492 2.36927 19.0418 2.36927ZM26.8197 30.4195C26.6236 30.5507 26.5059 30.7712 26.5059 31.0072V34.525C26.5059 34.5726 26.467 34.6114 26.4193 34.6114H23.7842C23.7517 34.6114 23.7222 34.5935 23.7073 34.5646L22.7091 32.624C22.5722 32.358 22.2829 32.2066 21.9868 32.2465C21.4795 32.3141 20.9645 32.3484 20.4562 32.3484H16.4402C15.9318 32.3484 15.4169 32.3141 14.9096 32.2465C14.6128 32.2065 14.324 32.3581 14.1873 32.624L13.1891 34.5646C13.1742 34.5935 13.1447 34.6114 13.1121 34.6114H10.477C10.4292 34.6114 10.3904 34.5726 10.3904 34.525V31.0072C10.3904 30.7712 10.2727 30.5508 10.0765 30.4195C7.86452 28.9388 6.22708 26.7262 5.46593 24.1892C5.37618 23.8901 5.10087 23.6852 4.78858 23.6852H2.90009C2.5979 23.6852 2.35201 23.4393 2.35201 23.1372V21.599H3.34208C3.73266 21.599 4.04928 21.2823 4.04928 20.8918C4.04928 20.5013 3.73266 20.1846 3.34208 20.1846H2.35201V18.6465C2.35201 18.3443 2.5979 18.0984 2.90009 18.0984H4.78865C5.10094 18.0984 5.37625 17.8936 5.466 17.5945C5.91111 16.1108 6.64234 14.7525 7.63942 13.5575C7.7455 13.4304 7.80363 13.2701 7.80363 13.1045V8.54145L11.054 10.4263C11.252 10.5412 11.4932 10.553 11.7016 10.4583C11.7087 10.4551 11.7158 10.452 11.7229 10.4488C11.8969 11.1128 12.1616 11.7499 12.5126 12.3467C12.0548 12.6809 11.6167 13.0543 11.2037 13.4674C10.9275 13.7436 10.9275 14.1914 11.2037 14.4676C11.4798 14.7437 11.9276 14.7437 12.2039 14.4676C15.9793 10.6921 22.1224 10.6921 25.8978 14.4676C26.0359 14.6056 26.2169 14.6747 26.3979 14.6747C26.5788 14.6747 26.7599 14.6056 26.8979 14.4676C27.1741 14.1914 27.1741 13.7436 26.8979 13.4674C26.481 13.0505 26.0388 12.6742 25.5763 12.3377C25.8305 11.9042 26.0391 11.4494 26.2006 10.9784C29.6962 13.013 31.9127 16.8153 31.9127 20.8919C31.9127 24.7232 30.0088 28.2849 26.8197 30.4195Z" fill="#FDF6F6"/>
<path d="M9.68376 15.9408C9.49706 15.9408 9.31531 16.0158 9.18377 16.148C9.05153 16.2796 8.97656 16.462 8.97656 16.648C8.97656 16.834 9.05153 17.0165 9.18377 17.148C9.31531 17.2795 9.49706 17.3552 9.68376 17.3552C9.86975 17.3552 10.0522 17.2795 10.1837 17.148C10.3153 17.0165 10.391 16.834 10.391 16.648C10.391 16.462 10.3153 16.2796 10.1837 16.148C10.0515 16.0158 9.86975 15.9408 9.68376 15.9408Z" fill="black"/>
</g>
<defs>
<clipPath id="clip0_2_86">
<rect width="36.2083" height="36.2083" fill="white" transform="translate(0.937622 0.385437)"/>
</clipPath>
</defs>
</svg>
