<svg width="37" height="37" viewBox="0 0 37 37" fill="none" xmlns="http://www.w3.org/2000/svg">
<g clip-path="url(#clip0_2_104)">
<path d="M23.188 28.744C26.3076 28.744 28.8456 31.282 28.8456 34.4016C28.8456 34.7921 29.1623 35.1088 29.5528 35.1088C29.9433 35.1088 30.26 34.7921 30.26 34.4016C30.26 31.282 32.7979 28.744 35.9175 28.744C36.308 28.744 36.6247 28.4273 36.6247 28.0368C36.6247 27.6463 36.308 27.3296 35.9175 27.3296C32.7979 27.3296 30.26 24.7916 30.26 21.6721C30.26 21.2816 29.9433 20.9649 29.5528 20.9649C29.1623 20.9649 28.8456 21.2816 28.8456 21.6721C28.8456 24.7916 26.3076 27.3296 23.188 27.3296C22.7975 27.3296 22.4808 27.6463 22.4808 28.0368C22.4808 28.4273 22.7975 28.744 23.188 28.744ZM29.5528 24.7534C30.247 26.1815 31.408 27.3426 32.8362 28.0368C31.4081 28.731 30.247 29.8921 29.5528 31.3202C28.8586 29.8921 27.6975 28.7311 26.2693 28.0368C27.6975 27.3426 28.8586 26.1816 29.5528 24.7534Z" fill="#FDF6F6"/>
<path d="M1.1237 7.52828C3.07343 7.52828 4.65967 9.11452 4.65967 11.0642C4.65967 11.4548 4.97628 11.7714 5.36686 11.7714C5.75744 11.7714 6.07406 11.4548 6.07406 11.0642C6.07406 9.11452 7.66029 7.52828 9.61003 7.52828C10.0006 7.52828 10.3172 7.2116 10.3172 6.82109C10.3172 6.43057 10.0006 6.11389 9.61003 6.11389C7.66029 6.11389 6.07406 4.52766 6.07406 2.57792C6.07406 2.18741 5.75744 1.87073 5.36686 1.87073C4.97628 1.87073 4.65967 2.18741 4.65967 2.57792C4.65967 4.52766 3.07343 6.11389 1.1237 6.11389C0.733115 6.11389 0.416504 6.43057 0.416504 6.82109C0.416504 7.2116 0.733115 7.52828 1.1237 7.52828ZM5.36686 5.12552C5.78503 5.81927 6.36867 6.40299 7.06236 6.82109C6.3686 7.23918 5.78496 7.8229 5.36686 8.51665C4.9487 7.8229 4.36505 7.23918 3.67136 6.82109C4.36505 6.40299 4.9487 5.81927 5.36686 5.12552Z" fill="#FDF6F6"/>
<path d="M20.1471 21.8842C20.5377 21.8842 20.8543 21.5676 20.8543 21.177C20.8543 20.7865 20.5377 20.4698 20.1471 20.4698C19.7566 20.4698 19.4399 20.7865 19.4399 21.177C19.4399 21.5676 19.7566 21.8842 20.1471 21.8842Z" fill="#FDF6F6"/>
<path d="M22.0337 19.5642C22.233 19.9001 22.667 20.0108 23.0028 19.8115C24.8499 18.7155 26.9681 18.1361 29.1285 18.1361C29.519 18.1361 29.8357 17.8194 29.8357 17.4289C29.8357 17.0384 29.519 16.7217 29.1285 16.7217C22.4994 16.7217 17.1062 11.3285 17.1062 4.69944C17.1062 4.30893 16.7896 3.99225 16.399 3.99225C16.0084 3.99225 15.6918 4.30893 15.6918 4.69944C15.6918 11.3285 10.2986 16.7217 3.66947 16.7217C3.27889 16.7217 2.96228 17.0384 2.96228 17.4289C2.96228 17.8194 3.27889 18.1361 3.66947 18.1361C10.2986 18.1361 15.6918 23.5293 15.6918 30.1584C15.6918 30.5489 16.0084 30.8656 16.399 30.8656C16.7896 30.8656 17.1062 30.5489 17.1062 30.1584C17.1062 27.998 17.6855 25.8798 18.7815 24.0328C18.9808 23.6969 18.8701 23.263 18.5343 23.0637C18.1981 22.8642 17.7644 22.9751 17.5652 23.311C17.0869 24.117 16.6966 24.969 16.3985 25.852C15.0581 21.9005 11.9262 18.7689 7.97452 17.4289C11.9266 16.0888 15.0588 12.9566 16.399 9.00449C17.739 12.9561 20.8705 16.0881 24.8219 17.4284C23.939 17.7266 23.087 18.1168 22.2809 18.5952C21.9451 18.7945 21.8344 19.2283 22.0337 19.5642Z" fill="#FDF6F6"/>
</g>
<defs>
<clipPath id="clip0_2_104">
<rect width="36.2083" height="36.2083" fill="white" transform="translate(0.416626 0.385437)"/>
</clipPath>
</defs>
</svg>
